# Blender 4.1.1
# www.blender.org
mtllib king.mtl
o Archer
v 0.000000 -0.542876 -2.116031
v 0.000000 0.008603 -2.017720
v 1.832536 -0.542876 -1.058015
v 1.747396 0.008603 -1.008860
v 1.832536 -0.542876 1.058015
v 1.747396 0.008603 1.008860
v 0.000000 -0.542876 2.116031
v 0.000000 0.008603 2.017720
v -1.832536 -0.542876 1.058015
v -1.747396 0.008603 1.008860
v -1.832536 -0.542876 -1.058015
v -1.747396 0.008603 -1.008860
v 2.122366 0.008603 -1.225349
v 0.000000 0.008603 -2.450697
v 2.122366 0.008603 1.225349
v 0.000000 0.008603 2.450697
v -2.122366 0.008603 1.225349
v -2.122366 0.008603 -1.225349
v 1.655685 0.941661 -0.955910
v 0.000000 0.941661 -1.911820
v 1.655685 0.941661 0.955910
v 0.000000 0.941661 1.911820
v -1.655685 0.941661 0.955910
v -1.655685 0.941661 -0.955910
v -1.896046 0.237989 -1.094683
v 0.000000 0.237989 -2.189366
v 0.000000 0.237989 2.189366
v -1.896046 0.237989 1.094683
v 1.896046 0.237989 -1.094683
v 1.896046 0.237989 1.094683
v 1.655685 1.394949 -0.955910
v 0.000000 1.394949 -1.911820
v 1.655685 1.394949 0.955910
v 0.000000 1.394949 1.911820
v -1.655685 1.394949 0.955910
v -1.655685 1.394949 -0.955910
v -1.501871 1.168305 -0.867106
v 0.000000 1.168305 -1.734211
v 0.000000 1.168305 1.734211
v -1.501871 1.168305 0.867106
v 1.501871 1.168305 -0.867106
v 1.501871 1.168305 0.867106
v 0.476189 6.085741 -0.274928
v 0.000000 6.085741 -0.549856
v 0.476189 6.085741 0.274928
v 0.000000 6.085741 0.549856
v -0.476189 6.085741 0.274928
v -0.476189 6.085741 -0.274928
v -0.785712 2.702525 -0.453631
v 0.000000 2.702525 -0.907262
v 0.000000 2.702525 0.907262
v -0.785712 2.702525 0.453631
v 0.785712 2.702525 -0.453631
v 0.785712 2.702525 0.453631
v 0.476193 6.796895 -0.274928
v 0.000004 6.796895 -0.549856
v 0.476193 6.796895 0.274928
v 0.000004 6.796895 0.549856
v -0.476186 6.796895 0.274928
v -0.476186 6.796895 -0.274928
v 0.476193 7.139956 -0.274928
v 0.000004 7.139956 -0.549856
v 0.476193 7.139956 0.274928
v 0.000004 7.139956 0.549856
v -0.476186 7.139956 0.274928
v -0.476186 7.139956 -0.274928
v 1.312446 9.387487 -0.757739
v 0.000004 9.387487 -1.515478
v 1.312446 9.387487 0.757739
v 0.000004 9.387487 1.515479
v -1.312439 9.387487 0.757739
v -1.312439 9.387487 -0.757739
v 1.301512 6.796895 -0.751426
v 0.000004 6.796895 -1.502852
v 1.301512 6.796895 0.751426
v 0.000004 6.796895 1.502852
v -1.301505 6.796895 0.751426
v -1.301505 6.796895 -0.751426
v 1.301512 7.139956 -0.751426
v 0.000004 7.139956 -1.502852
v 1.301512 7.139956 0.751426
v 0.000004 7.139956 1.502852
v -1.301505 7.139956 0.751426
v -1.301505 7.139956 -0.751426
v 1.312446 9.471333 -0.757739
v 0.000004 8.130234 -0.549856
v 0.476193 8.130234 -0.274928
v -0.476186 8.130234 -0.274928
v 0.000004 8.130234 0.549856
v -0.476186 8.130234 0.274928
v 0.476193 8.130234 0.274928
v 0.000004 9.471333 -1.515478
v 1.312446 9.471333 0.757739
v 0.000004 9.471333 1.515479
v -1.312439 9.471333 0.757739
v -1.312439 9.471333 -0.757739
v 0.000004 10.320210 0.000000
vn 0.4426 -0.4652 -0.7666
vn 0.8852 -0.4652 -0.0000
vn 0.4426 -0.4652 0.7666
vn -0.4426 -0.4652 0.7666
vn -0.4732 0.3232 -0.8195
vn -0.8852 -0.4652 -0.0000
vn -0.4426 -0.4652 -0.7666
vn -0.0000 -1.0000 -0.0000
vn -0.0000 1.0000 -0.0000
vn -0.4137 -0.5616 -0.7166
vn -0.4732 0.3232 0.8195
vn 0.9463 0.3232 -0.0000
vn -0.9463 0.3232 -0.0000
vn 0.4732 0.3232 0.8195
vn 0.4732 0.3232 -0.8195
vn 0.4196 -0.5438 -0.7268
vn 0.4196 -0.5438 0.7268
vn -0.8392 -0.5438 -0.0000
vn 0.8392 -0.5438 -0.0000
vn -0.4196 -0.5438 0.7268
vn -0.4196 -0.5438 -0.7268
vn -0.4979 0.0911 -0.8624
vn -0.4137 -0.5616 0.7166
vn 0.8274 -0.5616 -0.0000
vn -0.8274 -0.5616 -0.0000
vn 0.4137 -0.5616 0.7166
vn 0.4137 -0.5616 -0.7166
vn 0.4137 0.5616 -0.7166
vn 0.4137 0.5616 0.7166
vn -0.8274 0.5616 -0.0000
vn 0.8274 0.5616 -0.0000
vn -0.4137 0.5616 0.7166
vn -0.4137 0.5616 -0.7166
vn -0.5000 -0.0000 0.8660
vn -0.4979 0.0911 0.8624
vn 0.9958 0.0911 -0.0000
vn -0.9958 0.0911 -0.0000
vn 0.4979 0.0911 0.8624
vn 0.4979 0.0911 -0.8624
vn 0.4163 0.5539 -0.7210
vn 0.4163 0.5539 0.7210
vn -0.8326 0.5539 -0.0000
vn 0.8326 0.5539 -0.0000
vn -0.4163 0.5539 0.7210
vn -0.4163 0.5539 -0.7210
vn 1.0000 -0.0000 -0.0000
vn -1.0000 -0.0000 -0.0000
vn 0.5000 -0.0000 0.8660
vn 0.5000 -0.0000 -0.8660
vn -0.5000 -0.0000 -0.8660
vn 0.4163 -0.5538 -0.7211
vn -0.4163 -0.5538 -0.7211
vn -0.4163 -0.5538 0.7211
vn 0.8326 -0.5538 -0.0000
vn -0.8326 -0.5538 -0.0000
vn 0.4163 -0.5538 0.7211
vn -0.2715 0.8397 0.4703
vn 0.2715 0.8397 -0.4703
vn 0.2715 0.8397 0.4703
vn -0.5431 0.8397 -0.0000
vn -0.2715 0.8397 -0.4703
vn 0.5431 0.8397 -0.0000
vt 1.000000 0.500000
vt 1.000000 1.000000
vt 0.833333 1.000000
vt 0.833333 0.500000
vt 0.666667 1.000000
vt 0.666667 0.500000
vt 0.500000 1.000000
vt 0.500000 0.500000
vt 0.333333 1.000000
vt 0.333333 0.500000
vt 0.250000 0.447598
vt 0.078875 0.348799
vt 0.166667 1.000000
vt 0.166667 0.500000
vt -0.000000 1.000000
vt -0.000000 0.500000
vt 0.750000 0.490000
vt 0.957846 0.370000
vt 0.957846 0.130000
vt 0.750000 0.010000
vt 0.542154 0.130000
vt 0.542154 0.370000
vt 0.421125 0.348799
vt 0.457846 0.370000
vt 0.250000 0.490000
vt 0.421125 0.151201
vt 0.457846 0.130000
vt 0.250000 0.052402
vt 0.250000 0.010000
vt 0.078875 0.151201
vt 0.042154 0.130000
vt 0.042154 0.370000
vt 0.250000 0.052402
vt 0.421125 0.348799
vt 0.078875 0.348799
vt 0.250000 0.052402
vt 0.421125 0.348799
s 0
f 1/1/1 14/2/1 13/3/1 3/4/1
f 3/4/2 13/3/2 15/5/2 5/6/2
f 5/6/3 15/5/3 16/7/3 7/8/3
f 7/8/4 16/7/4 17/9/4 9/10/4
f 26/11/5 25/12/5 24/12/5 20/11/5
f 9/10/6 17/9/6 18/13/6 11/14/6
f 11/14/7 18/13/7 14/15/7 1/16/7
f 1/17/8 3/18/8 5/19/8 7/20/8 9/21/8 11/22/8
f 2/11/9 4/23/9 13/24/9 14/25/9
f 4/23/9 6/26/9 15/27/9 13/24/9
f 6/26/9 8/28/9 16/29/9 15/27/9
f 8/28/9 10/30/9 17/31/9 16/29/9
f 10/30/9 12/12/9 18/32/9 17/31/9
f 12/12/9 2/11/9 14/25/9 18/32/9
f 38/11/10 37/12/10 36/12/10 32/11/10
f 28/30/11 27/33/11 22/28/11 23/30/11
f 30/26/12 29/34/12 19/23/12 21/26/12
f 25/12/13 28/30/13 23/30/13 24/12/13
f 27/33/14 30/26/14 21/26/14 22/28/14
f 29/34/15 26/11/15 20/11/15 19/23/15
f 4/23/16 2/11/16 26/11/16 29/34/16
f 8/28/17 6/26/17 30/26/17 27/33/17
f 12/12/18 10/30/18 28/30/18 25/12/18
f 6/26/19 4/23/19 29/34/19 30/26/19
f 10/30/20 8/28/20 27/33/20 28/30/20
f 2/11/21 12/12/21 25/12/21 26/11/21
f 50/11/22 49/35/22 48/12/22 44/11/22
f 40/30/23 39/28/23 34/28/23 35/30/23
f 42/26/24 41/23/24 31/23/24 33/26/24
f 37/12/25 40/30/25 35/30/25 36/12/25
f 39/28/26 42/26/26 33/26/26 34/28/26
f 41/23/27 38/11/27 32/11/27 31/23/27
f 19/23/28 20/11/28 38/11/28 41/23/28
f 22/28/29 21/26/29 42/26/29 39/28/29
f 24/12/30 23/30/30 40/30/30 37/12/30
f 21/26/31 19/23/31 41/23/31 42/26/31
f 23/30/32 22/28/32 39/28/32 40/30/32
f 20/11/33 24/12/33 37/12/33 38/11/33
f 47/30/34 46/28/34 58/28/34 59/30/34
f 52/30/35 51/36/35 46/28/35 47/30/35
f 54/26/36 53/37/36 43/23/36 45/26/36
f 49/35/37 52/30/37 47/30/37 48/12/37
f 51/36/38 54/26/38 45/26/38 46/28/38
f 53/37/39 50/11/39 44/11/39 43/23/39
f 31/23/40 32/11/40 50/11/40 53/37/40
f 34/28/41 33/26/41 54/26/41 51/36/41
f 36/12/42 35/30/42 52/30/42 49/35/42
f 33/26/43 31/23/43 53/37/43 54/26/43
f 35/30/44 34/28/44 51/36/44 52/30/44
f 32/11/45 36/12/45 49/35/45 50/11/45
f 62/11/9 61/23/9 79/23/9 80/11/9
f 45/26/46 43/23/46 55/23/46 57/26/46
f 48/12/47 47/30/47 59/30/47 60/12/47
f 46/28/48 45/26/48 57/26/48 58/28/48
f 43/23/49 44/11/49 56/11/49 55/23/49
f 44/11/50 48/12/50 60/12/50 56/11/50
f 87/23/51 86/11/51 68/11/51 67/23/51
f 56/11/8 60/12/8 78/12/8 74/11/8
f 64/28/9 65/30/9 83/30/9 82/28/9
f 57/26/8 55/23/8 73/23/8 75/26/8
f 60/12/8 59/30/8 77/30/8 78/12/8
f 63/26/9 64/28/9 82/28/9 81/26/9
f 69/26/46 67/23/46 85/23/46 93/26/46
f 86/11/52 88/12/52 72/12/52 68/11/52
f 90/30/53 89/33/53 70/28/53 71/30/53
f 91/26/54 87/23/54 67/23/54 69/26/54
f 88/12/55 90/30/55 71/30/55 72/12/55
f 89/33/56 91/26/56 69/26/56 70/28/56
f 75/26/46 73/23/46 79/23/46 81/26/46
f 78/12/47 77/30/47 83/30/47 84/12/47
f 76/28/48 75/26/48 81/26/48 82/28/48
f 73/23/49 74/11/49 80/11/49 79/23/49
f 74/11/50 78/12/50 84/12/50 80/11/50
f 77/30/34 76/28/34 82/28/34 83/30/34
f 58/28/8 57/26/8 75/26/8 76/28/8
f 65/30/9 66/12/9 84/12/9 83/30/9
f 61/23/9 63/26/9 81/26/9 79/23/9
f 59/30/8 58/28/8 76/28/8 77/30/8
f 66/12/9 62/11/9 80/11/9 84/12/9
f 55/23/8 56/11/8 74/11/8 73/23/8
f 71/30/34 70/28/34 94/28/34 95/30/34
f 68/11/50 72/12/50 96/12/50 92/11/50
f 67/23/49 68/11/49 92/11/49 85/23/49
f 70/28/48 69/26/48 93/26/48 94/28/48
f 72/12/47 71/30/47 95/30/47 96/12/47
f 64/28/48 63/26/48 91/26/48 89/33/48
f 66/12/47 65/30/47 90/30/47 88/12/47
f 63/26/46 61/23/46 87/23/46 91/26/46
f 65/30/34 64/28/34 89/33/34 90/30/34
f 62/11/50 66/12/50 88/12/50 86/11/50
f 61/23/49 62/11/49 86/11/49 87/23/49
f 95/30/57 94/28/57 97/30/57
f 85/23/58 92/11/58 97/23/58
f 94/28/59 93/26/59 97/28/59
f 96/12/60 95/30/60 97/12/60
f 92/11/61 96/12/61 97/11/61
f 93/26/62 85/23/62 97/26/62
