# Blender 4.1.1
# www.blender.org
mtllib melee.mtl
o Pawn
v 0.000000 -0.542876 -2.116031
v 0.000000 0.008603 -2.017720
v 1.832536 -0.542876 -1.058015
v 1.747396 0.008603 -1.008860
v 1.832536 -0.542876 1.058015
v 1.747396 0.008603 1.008860
v 0.000000 -0.542876 2.116031
v 0.000000 0.008603 2.017720
v -1.832536 -0.542876 1.058015
v -1.747396 0.008603 1.008860
v -1.832536 -0.542876 -1.058015
v -1.747396 0.008603 -1.008860
v 2.122366 0.008603 -1.225349
v 0.000000 0.008603 -2.450697
v 2.122366 0.008603 1.225349
v 0.000000 0.008603 2.450697
v -2.122366 0.008603 1.225349
v -2.122366 0.008603 -1.225349
v 1.655685 0.941661 -0.955910
v 0.000000 0.941661 -1.911820
v 1.655685 0.941661 0.955910
v 0.000000 0.941661 1.911820
v -1.655685 0.941661 0.955910
v -1.655685 0.941661 -0.955910
v -1.896046 0.237989 -1.094683
v 0.000000 0.237989 -2.189366
v 0.000000 0.237989 2.189366
v -1.896046 0.237989 1.094683
v 1.896046 0.237989 -1.094683
v 1.896046 0.237989 1.094683
v 1.655685 1.394949 -0.955910
v 0.000000 1.394949 -1.911820
v 1.655685 1.394949 0.955910
v 0.000000 1.394949 1.911820
v -1.655685 1.394949 0.955910
v -1.655685 1.394949 -0.955910
v -1.501871 1.168305 -0.867106
v 0.000000 1.168305 -1.734211
v 0.000000 1.168305 1.734211
v -1.501871 1.168305 0.867106
v 1.501871 1.168305 -0.867106
v 1.501871 1.168305 0.867106
v 0.476189 7.155013 -0.274928
v 0.000000 7.155013 -0.549856
v 0.476189 7.155013 0.274928
v 0.000000 7.155013 0.549856
v -0.476189 7.155013 0.274928
v -0.476189 7.155013 -0.274928
v -0.785712 2.702525 -0.453631
v 0.000000 2.702525 -0.907262
v 0.000000 2.702525 0.907262
v -0.785712 2.702525 0.453631
v 0.785712 2.702525 -0.453631
v 0.785712 2.702525 0.453631
v -0.000000 7.437915 -1.174556
v 1.017195 8.794175 -0.587278
v 1.017195 7.437915 -0.587278
v 1.017195 8.794175 0.587278
v 1.017195 7.437915 0.587278
v -0.000000 8.794175 1.174556
v -0.000000 7.437915 1.174556
v -0.000000 6.759784 0.000000
v -0.000000 9.472306 0.000000
v -1.017196 8.794175 0.587278
v -1.017196 7.437915 0.587278
v -1.017195 8.794175 -0.587278
v -1.017195 7.437915 -0.587278
v 0.000000 8.794175 -1.174556
v -0.000000 7.930760 -0.173844
v 0.150553 7.930760 -0.086922
v 0.150553 7.930760 0.086922
v -0.000000 7.930760 0.173844
v -0.150553 7.930760 0.086922
v -0.150553 7.930760 -0.086922
vn 0.4426 -0.4652 -0.7666
vn 0.8852 -0.4652 -0.0000
vn 0.4426 -0.4652 0.7666
vn -0.4426 -0.4652 0.7666
vn -0.4732 0.3232 -0.8195
vn -0.8852 -0.4652 -0.0000
vn -0.4426 -0.4652 -0.7666
vn -0.0000 -1.0000 -0.0000
vn -0.0000 1.0000 -0.0000
vn -0.4137 -0.5616 -0.7166
vn -0.4732 0.3232 0.8195
vn 0.9463 0.3232 -0.0000
vn -0.9463 0.3232 -0.0000
vn 0.4732 0.3232 0.8195
vn 0.4732 0.3232 -0.8195
vn 0.4196 -0.5438 -0.7268
vn 0.4196 -0.5438 0.7268
vn -0.8392 -0.5438 -0.0000
vn 0.8392 -0.5438 -0.0000
vn -0.4196 -0.5438 0.7268
vn -0.4196 -0.5438 -0.7268
vn -0.4988 0.0693 -0.8639
vn -0.4137 -0.5616 0.7166
vn 0.8274 -0.5616 -0.0000
vn -0.8274 -0.5616 -0.0000
vn 0.4137 -0.5616 0.7166
vn 0.4137 -0.5616 -0.7166
vn 0.4137 0.5616 -0.7166
vn 0.4137 0.5616 0.7166
vn -0.8274 0.5616 -0.0000
vn 0.8274 0.5616 -0.0000
vn -0.4137 0.5616 0.7166
vn -0.4137 0.5616 -0.7166
vn -0.4988 0.0693 0.8639
vn 0.9976 0.0693 -0.0000
vn -0.9976 0.0693 -0.0000
vn 0.4988 0.0693 0.8639
vn 0.4988 0.0693 -0.8639
vn 0.4163 0.5539 -0.7210
vn 0.4163 0.5539 0.7210
vn -0.8326 0.5539 -0.0000
vn 0.8326 0.5539 -0.0000
vn -0.4163 0.5539 0.7210
vn -0.4163 0.5539 -0.7210
vn 0.2774 -0.8321 -0.4804
vn 0.5000 -0.0000 -0.8660
vn 0.2774 0.8320 -0.4804
vn 0.5547 -0.8321 -0.0000
vn 1.0000 -0.0000 -0.0000
vn 0.5547 0.8320 -0.0000
vn 0.2774 -0.8321 0.4804
vn 0.5000 -0.0000 0.8660
vn 0.2774 0.8320 0.4804
vn -0.2774 -0.8321 0.4804
vn -0.5000 -0.0000 0.8660
vn -0.2774 0.8320 0.4804
vn -0.5547 -0.8320 -0.0000
vn -1.0000 -0.0000 -0.0000
vn -0.5547 0.8321 -0.0000
vn -0.2774 -0.8321 -0.4804
vn -0.5000 -0.0000 -0.8660
vn -0.2774 0.8320 -0.4804
vt 1.000000 0.500000
vt 1.000000 1.000000
vt 0.833333 1.000000
vt 0.833333 0.500000
vt 0.666667 1.000000
vt 0.666667 0.500000
vt 0.500000 1.000000
vt 0.500000 0.500000
vt 0.333333 1.000000
vt 0.333333 0.500000
vt 0.250000 0.447598
vt 0.078875 0.348799
vt 0.166667 1.000000
vt 0.166667 0.500000
vt -0.000000 1.000000
vt -0.000000 0.500000
vt 0.750000 0.490000
vt 0.957846 0.370000
vt 0.957846 0.130000
vt 0.750000 0.010000
vt 0.542154 0.130000
vt 0.542154 0.370000
vt 0.421125 0.348799
vt 0.457846 0.370000
vt 0.250000 0.490000
vt 0.421125 0.151201
vt 0.457846 0.130000
vt 0.250000 0.052402
vt 0.250000 0.010000
vt 0.078875 0.151201
vt 0.042154 0.130000
vt 0.042154 0.370000
vt 0.250000 0.052402
vt 0.421125 0.348799
vt 0.078875 0.348799
vt 0.250000 0.052402
vt 0.421125 0.348799
vt 0.583333 0.000000
vt 0.666667 0.333333
vt 0.500000 0.333333
vt 0.666667 0.666667
vt 0.500000 0.666667
vt 0.583333 1.000000
vt 0.416667 0.000000
vt 0.333333 0.333333
vt 0.333333 0.666667
vt 0.416667 1.000000
vt 0.250000 0.000000
vt 0.166667 0.333333
vt 0.166667 0.666667
vt 0.250000 1.000000
vt 0.083333 0.000000
vt 0.000000 0.333333
vt 0.000000 0.666667
vt 0.083333 1.000000
vt 0.916667 0.000000
vt 1.000000 0.333333
vt 0.833333 0.333333
vt 1.000000 0.666667
vt 0.833333 0.666667
vt 0.916667 1.000000
vt 0.750000 0.000000
vt 0.750000 1.000000
s 0
f 1/1/1 14/2/1 13/3/1 3/4/1
f 3/4/2 13/3/2 15/5/2 5/6/2
f 5/6/3 15/5/3 16/7/3 7/8/3
f 7/8/4 16/7/4 17/9/4 9/10/4
f 26/11/5 25/12/5 24/12/5 20/11/5
f 9/10/6 17/9/6 18/13/6 11/14/6
f 11/14/7 18/13/7 14/15/7 1/16/7
f 1/17/8 3/18/8 5/19/8 7/20/8 9/21/8 11/22/8
f 2/11/9 4/23/9 13/24/9 14/25/9
f 4/23/9 6/26/9 15/27/9 13/24/9
f 6/26/9 8/28/9 16/29/9 15/27/9
f 8/28/9 10/30/9 17/31/9 16/29/9
f 10/30/9 12/12/9 18/32/9 17/31/9
f 12/12/9 2/11/9 14/25/9 18/32/9
f 38/11/10 37/12/10 36/12/10 32/11/10
f 28/30/11 27/33/11 22/28/11 23/30/11
f 30/26/12 29/34/12 19/23/12 21/26/12
f 25/12/13 28/30/13 23/30/13 24/12/13
f 27/33/14 30/26/14 21/26/14 22/28/14
f 29/34/15 26/11/15 20/11/15 19/23/15
f 4/23/16 2/11/16 26/11/16 29/34/16
f 8/28/17 6/26/17 30/26/17 27/33/17
f 12/12/18 10/30/18 28/30/18 25/12/18
f 6/26/19 4/23/19 29/34/19 30/26/19
f 10/30/20 8/28/20 27/33/20 28/30/20
f 2/11/21 12/12/21 25/12/21 26/11/21
f 50/11/22 49/35/22 48/12/22 44/11/22
f 40/30/23 39/28/23 34/28/23 35/30/23
f 42/26/24 41/23/24 31/23/24 33/26/24
f 37/12/25 40/30/25 35/30/25 36/12/25
f 39/28/26 42/26/26 33/26/26 34/28/26
f 41/23/27 38/11/27 32/11/27 31/23/27
f 19/23/28 20/11/28 38/11/28 41/23/28
f 22/28/29 21/26/29 42/26/29 39/28/29
f 24/12/30 23/30/30 40/30/30 37/12/30
f 21/26/31 19/23/31 41/23/31 42/26/31
f 23/30/32 22/28/32 39/28/32 40/30/32
f 20/11/33 24/12/33 37/12/33 38/11/33
f 43/23/9 44/11/9 48/12/9 47/30/9 46/28/9 45/26/9
f 52/30/34 51/36/34 46/28/34 47/30/34
f 54/26/35 53/37/35 43/23/35 45/26/35
f 49/35/36 52/30/36 47/30/36 48/12/36
f 51/36/37 54/26/37 45/26/37 46/28/37
f 53/37/38 50/11/38 44/11/38 43/23/38
f 31/23/39 32/11/39 50/11/39 53/37/39
f 34/28/40 33/26/40 54/26/40 51/36/40
f 36/12/41 35/30/41 52/30/41 49/35/41
f 33/26/42 31/23/42 53/37/42 54/26/42
f 35/30/43 34/28/43 51/36/43 52/30/43
f 32/11/44 36/12/44 49/35/44 50/11/44
f 62/38/45 55/39/45 57/40/45
f 55/39/46 68/41/46 56/42/46 57/40/46
f 68/41/47 63/43/47 56/42/47
f 62/44/48 57/40/48 59/45/48
f 57/40/49 56/42/49 58/46/49 59/45/49
f 56/42/50 63/47/50 58/46/50
f 62/48/51 59/45/51 61/49/51
f 59/45/52 58/46/52 60/50/52 61/49/52
f 58/46/53 63/51/53 60/50/53
f 62/52/54 61/49/54 65/53/54
f 61/49/55 60/50/55 64/54/55 65/53/55
f 60/50/56 63/55/56 64/54/56
f 62/56/57 65/57/57 67/58/57
f 65/57/58 64/59/58 66/60/58 67/58/58
f 64/59/59 63/61/59 66/60/59
f 62/62/60 67/58/60 55/39/60
f 67/58/61 66/60/61 68/41/61 55/39/61
f 66/60/62 63/63/62 68/41/62
f 69/17/8 70/18/8 71/19/8 72/20/8 73/21/8 74/22/8
